<svg width="30" height="23" viewBox="0 0 30 23" fill="none" xmlns="http://www.w3.org/2000/svg">
<g filter="url(#filter0_d_42_50)">
<path d="M2.33917 6.73969L12.9664 0.381476C13.2293 0.221507 13.5303 0.135078 13.8381 0.131218C14.1458 0.127358 14.4489 0.206208 14.7157 0.359532C15.0053 0.52813 15.245 0.770347 15.4107 1.06158C15.5763 1.35282 15.6619 1.68271 15.6588 2.01773V6.46567L25.8274 0.379788C26.0903 0.219819 26.3914 0.13339 26.6991 0.12953C27.0068 0.12567 27.3099 0.20452 27.5768 0.357844C27.8663 0.526442 28.1061 0.768659 28.2717 1.0599C28.4373 1.35113 28.5229 1.68102 28.5198 2.01604V14.4511C28.5231 14.7863 28.4376 15.1163 28.2719 15.4076C28.1063 15.699 27.8664 15.9413 27.5768 16.1099C27.3099 16.2632 27.0068 16.3421 26.6991 16.3382C26.3914 16.3344 26.0903 16.2479 25.8274 16.088L15.6588 9.99926V14.4489C15.6625 14.7844 15.5771 15.1149 15.4114 15.4067C15.2458 15.6985 15.0057 15.9411 14.7157 16.1099C14.4489 16.2632 14.1458 16.3421 13.8381 16.3382C13.5303 16.3344 13.2293 16.2479 12.9664 16.088L2.33917 9.72974C2.08653 9.57148 1.87825 9.35163 1.73386 9.09081C1.58948 8.82999 1.51373 8.53677 1.51373 8.23865C1.51373 7.94054 1.58948 7.64731 1.73386 7.3865C1.87825 7.12568 2.08653 6.90583 2.33917 6.74757V6.73969Z" fill="#E1E1E6"/>
</g>
<defs>
<filter id="filter0_d_42_50" x="-2.48627" y="0.129395" width="35.0062" height="24.2089" filterUnits="userSpaceOnUse" color-interpolation-filters="sRGB">
<feFlood flood-opacity="0" result="BackgroundImageFix"/>
<feColorMatrix in="SourceAlpha" type="matrix" values="0 0 0 0 0 0 0 0 0 0 0 0 0 0 0 0 0 0 127 0" result="hardAlpha"/>
<feOffset dy="4"/>
<feGaussianBlur stdDeviation="2"/>
<feComposite in2="hardAlpha" operator="out"/>
<feColorMatrix type="matrix" values="0 0 0 0 0 0 0 0 0 0 0 0 0 0 0 0 0 0 0.25 0"/>
<feBlend mode="normal" in2="BackgroundImageFix" result="effect1_dropShadow_42_50"/>
<feBlend mode="normal" in="SourceGraphic" in2="effect1_dropShadow_42_50" result="shape"/>
</filter>
</defs>
</svg>
